<svg xmlns="http://www.w3.org/2000/svg" width="30" height="30" viewBox="0 0 30 30"><defs><clipPath id="33bxa"><path fill="#fff" d="M0 5c0-2.5 2.5-5 5-5h20c2.5 0 5 2.5 5 5v20c0 2.5-2.5 5-5 5H5c-2.5 0-5-2.5-5-5z"/></clipPath></defs><g><g><g><path fill="none" stroke="#fff" stroke-miterlimit="50" stroke-width="4" d="M0 5c0-2.5 2.5-5 5-5h20c2.5 0 5 2.5 5 5v20c0 2.5-2.5 5-5 5H5c-2.5 0-5-2.5-5-5z" clip-path="url(&quot;#33bxa&quot;)"/></g><g><path fill="none" stroke="#fff" stroke-linecap="round" stroke-miterlimit="50" stroke-width="2" d="M20.732 14.5h-12"/></g><g><path fill="none" stroke="#fff" stroke-linecap="round" stroke-miterlimit="50" stroke-width="2" d="M16.41 10.633l4.916 3.441"/></g><g><path fill="none" stroke="#fff" stroke-linecap="round" stroke-miterlimit="50" stroke-width="2" d="M21.5 14.232l-4.243 4.243"/></g></g></g></svg>