<svg xmlns="http://www.w3.org/2000/svg" width="41" height="41" viewBox="0 0 41 41"><g><g><g><path fill="#b2b2b2" d="M33.813 40.183H7.147a6.675 6.675 0 0 1-6.668-6.667V6.85A6.675 6.675 0 0 1 7.147.183h26.666a6.674 6.674 0 0 1 6.666 6.667v26.666a6.674 6.674 0 0 1-6.666 6.667M7.147 2.683A4.173 4.173 0 0 0 2.979 6.85v26.666a4.173 4.173 0 0 0 4.168 4.167h26.666a4.172 4.172 0 0 0 4.166-4.167V6.85a4.172 4.172 0 0 0-4.166-4.167z"/></g><g><path fill="#b2b2b2" d="M27.98 13.874h5V7.683h-5c-4.136 0-7.5 3.645-7.5 8.125v3.125h-5v6.211h5v15.039h6.25V25.144h6.25v-6.211h-6.25v-3.184c0-1.073.66-1.875 1.25-1.875"/></g></g></g></svg>