<svg xmlns="http://www.w3.org/2000/svg" width="40" height="40" viewBox="0 0 40 40"><g><g><g><path fill="#666" d="M33.354 40.001H6.688a6.675 6.675 0 0 1-6.669-6.667V6.668A6.675 6.675 0 0 1 6.688.001h26.666c3.675 0 6.665 2.991 6.665 6.667v26.666c0 3.676-2.99 6.667-6.665 6.667M6.688 2.501a4.173 4.173 0 0 0-4.169 4.167v26.666a4.173 4.173 0 0 0 4.169 4.167h26.666a4.17 4.17 0 0 0 4.165-4.167V6.668a4.171 4.171 0 0 0-4.165-4.167z"/></g><g><path fill="#666" d="M27.52 13.692h5V7.5h-5c-4.136 0-7.5 3.645-7.5 8.125v3.125h-5v6.21h5v15.04h6.25v-15.04h6.25v-6.21h-6.25v-3.184c0-1.073.66-1.875 1.25-1.875"/></g></g></g></svg>