<svg xmlns="http://www.w3.org/2000/svg" width="40" height="40" viewBox="0 0 40 40"><g><g><g><path fill="#fff" d="M33.334 40H6.668A6.675 6.675 0 0 1 0 33.333V6.667A6.675 6.675 0 0 1 6.668 0h26.666A6.674 6.674 0 0 1 40 6.667v26.666A6.674 6.674 0 0 1 33.334 40M6.668 2.5A4.173 4.173 0 0 0 2.5 6.667v26.666A4.173 4.173 0 0 0 6.668 37.5h26.666a4.172 4.172 0 0 0 4.166-4.167V6.667A4.172 4.172 0 0 0 33.334 2.5z"/></g><g><path fill="#fff" d="M27.5 13.691h5V7.5h-5c-4.135 0-7.5 3.645-7.5 8.125v3.125h-5v6.211h5V40h6.25V24.961h6.25V18.75h-6.25v-3.184c0-1.073.66-1.875 1.25-1.875"/></g></g></g></svg>