<svg xmlns="http://www.w3.org/2000/svg" width="217" height="86" viewBox="0 0 217 86"><g><g><g><path fill="#007e00" d="M0 49.105V9.364h10.308v39.741z"/></g><g><path fill="#007e00" d="M24.779 16.133c1.138 0 1.914.12 2.326.357.412.238.676.612.792 1.12.115.508.173 1.665.173 3.468v15.477c0 2.658-.173 4.286-.52 4.885-.346.599-1.27.897-2.771.897V16.133M14.471 49.106h13.02c2.468 0 4.315-.135 5.541-.405s2.256-.745 3.09-1.424c.834-.679 1.418-1.62 1.754-2.823.334-1.203.502-3.588.502-7.155V23.381c0-3.764-.114-6.288-.343-7.573-.229-1.284-.802-2.45-1.717-3.497-.916-1.047-2.252-1.8-4.009-2.258-1.757-.458-5.129-.689-10.114-.689h-7.724z"/></g><g><path fill="#007e00" d="M64.094 21.411h-9.563v-2.95c0-1.378-.123-2.253-.368-2.631-.244-.376-.652-.566-1.224-.566-.621 0-1.09.255-1.408.761-.318.508-.477 1.277-.477 2.308 0 1.327.178 2.325.536 2.996.339.671 1.31 1.481 2.911 2.426 4.591 2.726 7.482 4.964 8.675 6.712 1.191 1.749 1.787 4.571 1.787 8.461 0 2.828-.331 4.912-.993 6.253-.663 1.34-1.943 2.465-3.841 3.372-1.897.905-4.106 1.361-6.624 1.361-2.765 0-5.125-.524-7.08-1.567-1.955-1.044-3.235-2.374-3.84-3.99-.606-1.614-.907-3.907-.907-6.877v-2.594h9.562v4.821c0 1.484.136 2.439.409 2.863.271.426.754.637 1.448.637.693 0 1.209-.27 1.548-.811.337-.539.507-1.342.507-2.406 0-2.34-.318-3.871-.953-4.592-.652-.72-2.262-1.919-4.832-3.599-2.57-1.696-4.272-2.93-5.106-3.697-.834-.769-1.525-1.831-2.072-3.188-.549-1.356-.822-3.09-.822-5.199 0-3.041.388-5.263 1.164-6.669.777-1.406 2.031-2.504 3.764-3.298 1.732-.793 3.824-1.19 6.276-1.19 2.68 0 4.964.433 6.852 1.3 1.888.868 3.138 1.958 3.751 3.274.613 1.317.92 3.554.92 6.709z"/></g><g><path fill="#007e00" d="M151.713 9.364v26.56c0 3.977-.042 6.535-.124 7.672a5.846 5.846 0 0 1-1.125 3.08c-.668.916-1.57 1.551-2.707 1.903-1.138.352-2.853.526-5.145.526h-5.181V42.14c.628.049 1.085.073 1.366.073.745 0 1.332-.179 1.763-.539.431-.361.679-.801.745-1.325.066-.523.1-1.537.1-3.042V9.364z"/></g><g><path fill="#007e00" d="M187.53 9.364v39.741h-9.004l-.031-26.828-3.57 26.828h-6.458l-3.757-26.269-.031 26.269h-9.004V9.364h13.335c.392 2.413.805 5.237 1.239 8.476l1.478 10.081 2.344-18.557z"/></g><g><path fill="#007e00" d="M216.302 9.364l-5.93 17.945 6.489 21.796h-10.618l-4.254-17.035v17.035h-10.307V9.365h10.307v15.439l4.626-15.44z"/></g><g><path d="M125.72 27.75c0 3.045-2.232 5.514-4.986 5.514h-7.46c-2.754 0-4.986-2.469-4.986-5.514V16.699c0-3.045 2.232-5.512 4.986-5.512h7.46c2.754 0 4.986 2.467 4.986 5.512zm-20.563 0c0 3.045-2.145 5.514-4.794 5.514h-7.172c-2.649 0-4.796-2.469-4.796-5.514V16.699c0-3.045 2.147-5.512 4.796-5.512h7.172c2.649 0 4.794 2.467 4.794 5.512zm-19.9 1.646a3.855 3.855 0 0 1-7.71 0V14.98a3.856 3.856 0 0 1 7.71 0zM132.854 11.6c.056 0 .112.006.167.008V9.366c0-2.842-2.312-5.816-5.193-6.489-17.584-3.731-34.72-3.731-52.304 0-2.88.673-5.192 3.647-5.192 6.489v2.242c.056-.002.111-.008.168-.008 2.13 0 3.855 1.684 3.855 3.762v14.069c0 2.078-1.725 3.763-3.855 3.763-.057 0-.112-.006-.168-.008V46.84c0 2.843 2.312 5.816 5.192 6.49.866.183 1.73.355 2.593.521-.043.3-.075.606-.075.919 0 3.522 2.927 6.378 6.537 6.378 3.301 0 6.021-2.388 6.467-5.489 6.655.582 13.284.615 19.938.105.49 3.05 3.187 5.384 6.449 5.384 3.61 0 6.536-2.856 6.536-6.378 0-.23-.013-.455-.038-.679 1.297-.235 2.596-.486 3.897-.761 2.881-.674 5.193-3.647 5.193-6.49V33.186c-.055.002-.111.008-.167.008-2.13 0-3.855-1.685-3.855-3.763V15.362c0-2.078 1.725-3.762 3.855-3.762"/></g><g><path fill="#007e00" d="M19.429 86.079s22.441-16.976 86.389-22.99c59.521-5.598 85.237 8.951 85.237 8.951s-30.862-5.91-64.569-4.741c-31.386 1.089-47.666 3.944-70.213 8.06-12.023 2.195-36.844 10.72-36.844 10.72"/></g></g></g></svg>