<svg xmlns="http://www.w3.org/2000/svg" width="40" height="41" viewBox="0 0 40 41"><g><g><g><path fill="#b2b2b2" d="M33.313 40.183H6.647a6.675 6.675 0 0 1-6.668-6.667V6.85A6.675 6.675 0 0 1 6.647.183h26.666a6.674 6.674 0 0 1 6.666 6.667v26.666a6.674 6.674 0 0 1-6.666 6.667M6.647 2.683A4.173 4.173 0 0 0 2.479 6.85v26.666a4.173 4.173 0 0 0 4.168 4.167h26.666a4.172 4.172 0 0 0 4.166-4.167V6.85a4.172 4.172 0 0 0-4.166-4.167z"/></g><g><path fill="#b2b2b2" d="M25.258 6.775a8.475 8.475 0 0 1 8.474 8.476v10.557a8.473 8.473 0 0 1-8.474 8.474H14.701a8.474 8.474 0 0 1-8.475-8.474V15.251a8.475 8.475 0 0 1 8.475-8.476h10.557m5.834 9.489a6.848 6.848 0 0 0-6.847-6.848h-8.531a6.848 6.848 0 0 0-6.848 6.848v8.53a6.847 6.847 0 0 0 6.848 6.848h8.531a6.847 6.847 0 0 0 6.847-6.848z"/></g><g><path fill="#b2b2b2" d="M20.349 13.332a7.245 7.245 0 1 1 0 14.49 7.246 7.246 0 0 1 0-14.49m0 11.604a4.36 4.36 0 1 0-.004-8.72 4.36 4.36 0 0 0 .004 8.72"/></g><g><path fill="#b2b2b2" d="M28.935 13.219a1.843 1.843 0 1 1-3.685-.001 1.843 1.843 0 0 1 3.685.001"/></g></g></g></svg>