<svg xmlns="http://www.w3.org/2000/svg" width="41" height="40" viewBox="0 0 41 40"><g><g><g><path fill="#666" d="M34.007 40.001H7.341a6.675 6.675 0 0 1-6.668-6.667V6.668A6.675 6.675 0 0 1 7.341.001h26.666a6.674 6.674 0 0 1 6.666 6.667v26.666a6.674 6.674 0 0 1-6.666 6.667M7.341 2.501a4.173 4.173 0 0 0-4.168 4.167v26.666a4.173 4.173 0 0 0 4.168 4.167h26.666a4.172 4.172 0 0 0 4.166-4.167V6.668a4.172 4.172 0 0 0-4.166-4.167z"/></g><g><path fill="#666" d="M25.952 6.593a8.474 8.474 0 0 1 8.474 8.476v10.556a8.473 8.473 0 0 1-8.474 8.473H15.395a8.473 8.473 0 0 1-8.475-8.473V15.069a8.475 8.475 0 0 1 8.475-8.476h10.557m5.834 9.488a6.849 6.849 0 0 0-6.847-6.848h-8.531A6.849 6.849 0 0 0 9.56 16.08v8.53a6.847 6.847 0 0 0 6.848 6.848h8.531a6.847 6.847 0 0 0 6.847-6.848z"/></g><g><path fill="#666" d="M21.042 13.15a7.245 7.245 0 1 1 0 14.49 7.246 7.246 0 0 1 0-14.49m0 11.603a4.358 4.358 0 1 0 0-8.717 4.358 4.358 0 0 0 0 8.717"/></g><g><path fill="#666" d="M29.628 13.036a1.843 1.843 0 1 1-3.686-.003 1.843 1.843 0 0 1 3.686.003"/></g></g></g></svg>