<svg xmlns="http://www.w3.org/2000/svg" width="162" height="78" viewBox="0 0 162 78"><g><g><g><path fill="#666" d="M.469 75.757c13.502-14.67 107.7-47.886 161.487-33.626C102.552 38.48 21.17 62.065.47 75.757"/></g><g><path fill="#666" d="M32.958 7.953c0-.69-.178-1.238-.533-1.645-.355-.408-.935-.611-1.739-.611V4.474h8.715v20.31l5.424-5.406c.495-.502.82-.862.974-1.08.309-.44.463-.848.463-1.224s-.177-.658-.532-.846c-.356-.188-1.074-.345-2.156-.47v-1.082h9.967v1.082c-1.329.188-2.581.674-3.755 1.457-.217.157-1.901 1.693-5.053 4.607l8.622 12.13c.34.47.556.768.649.894.248.282.541.423.881.423v1.081H44.037V35.27c.433 0 .874-.063 1.322-.189.448-.125.672-.376.672-.75 0-.346-.201-.801-.603-1.365a27.056 27.056 0 0 0-.788-1.035l-4.172-6.065-1.067 1.223v4.748a37 37 0 0 0 .024 1.388c.015.422.108.783.278 1.08.17.299.479.51.927.636.448.125.858.234 1.229.329v1.081H30.686V35.27c1.515 0 2.272-.956 2.272-2.868zm30.457 14.339v6.818c0 1.755.247 3.181.742 4.278.649 1.41 1.638 2.116 2.967 2.116 1.329 0 2.256-.69 2.781-2.069.278-.72.526-2.069.742-4.043v-7.194c0-1.786-.186-3.197-.557-4.231-.587-1.63-1.606-2.445-3.059-2.445-1.484 0-2.519 1.003-3.106 3.009-.34 1.16-.51 2.414-.51 3.761M56.6 24.408c0-2.915 1.028-5.36 3.076-7.334 2.047-1.975 4.573-2.962 7.587-2.962 2.518 0 4.744.87 6.683 2.609 1.939 1.739 3.144 4.145 3.608 7.217v1.552c0 3.008-.819 5.594-2.449 7.757-1.878 2.507-4.427 3.761-7.657 3.761-3.137 0-5.733-1.042-7.78-3.127-2.048-2.084-3.068-4.787-3.068-8.109v-.776zm25.914-5.5c0-.972-.177-1.701-.533-2.187-.355-.485-.997-.807-1.924-.963v-1.082h8.809v3.667c.865-1.254 1.73-2.225 2.596-2.914 1.143-.878 2.333-1.317 3.569-1.317 1.02 0 1.909.353 2.666 1.058.757.705 1.136 1.575 1.136 2.61 0 .939-.264 1.692-.788 2.256-.526.564-1.237.893-2.134.987-.556-.063-1.042-.203-1.459-.423a2.518 2.518 0 0 1-.997-.94c-.587-1.004-1.158-1.505-1.716-1.505-.679 0-1.297.408-1.854 1.223-.556.815-.834 1.817-.834 3.009v9.074c0 1.535.201 2.554.603 3.055.401.502 1.314.753 2.735.753v1.081H80.057V35.27c.897-.189 1.53-.486 1.901-.894.371-.407.556-1.065.556-1.974zm20.815-1.928a8.762 8.762 0 0 1 2.735-2.092c1.051-.517 2.102-.776 3.153-.776 1.081 0 2.085.227 3.013.681.927.455 1.793 1.184 2.596 2.187V7.953c0-1.097-.479-1.771-1.437-2.021-1.144-.095-1.839-.173-2.087-.235V4.568h9.968v26.845c0 1.128.185 1.897.556 2.304.371.407 1.112.612 2.225.612v1.08c-.989 0-2.48.165-4.474.494-1.993.329-3.515.697-4.566 1.105v-3.15c-1.885 2.1-3.786 3.15-5.702 3.15-2.874 0-5.146-1.191-6.815-3.573-1.452-2.069-2.179-4.529-2.179-7.381 0-1.849.271-3.55.812-5.101.541-1.552 1.275-2.876 2.202-3.973m3.986 8.415c0 4.334.603 7.061 1.808 8.189.217.21.464.376.743.486.277.11.603.196.973.26a4.381 4.381 0 0 0 1.924-.73c.572-.384 1.09-.91 1.552-1.56a6.79 6.79 0 0 0 .511-.893V19.644c-.371-.932-.897-1.645-1.576-2.123-.68-.486-1.36-.729-2.04-.729-1.669 0-2.797 1.09-3.384 3.275-.34 1.277-.511 3.056-.511 5.328m18.498-9.637v-1.082h8.946v17.82c0 .876.155 1.535.464 1.973.309.439.881.705 1.715.8v1.081h-11.125V35.27c.896-.25 1.522-.581 1.877-.988.356-.407.533-1.097.533-2.07V18.156c0-.814-.193-1.38-.579-1.692-.387-.313-.997-.549-1.831-.705m20.721-1.646c.711 0 1.484.094 2.319.282a65.92 65.92 0 0 1 2.642.658c.586 0 .974-.313 1.16-.94h1.019v6.817h-1.205c-.526-1.88-1.391-3.26-2.597-4.153-.958-.713-1.993-1.065-3.106-1.065-.834 0-1.553.25-2.155.752-.603.493-.904 1.12-.904 1.88.433 1.325 1.329 2.414 2.688 3.26 1.793.854 3.137 1.497 4.034 1.935 1.267.604 2.255 1.372 2.966 2.32.835 1.105 1.252 2.374 1.252 3.824 0 1.856-.464 3.416-1.39 4.677-1.299 1.764-3.276 2.649-5.934 2.649-.742 0-1.646-.15-2.712-.447a72.766 72.766 0 0 1-3.176-.964c-.185 0-.355.079-.509.236-.155.156-.372.548-.649 1.175h-1.206v-7.804h1.298c.433 1.943 1.128 3.432 2.086 4.466 1.112 1.16 2.581 1.74 4.404 1.74.927 0 1.723-.267 2.387-.799.665-.534.997-1.301.997-2.305 0-.752-.402-1.472-1.205-2.162-.649-.564-1.669-1.16-3.06-1.786-4.605-1.975-6.907-4.357-6.907-7.147l.186-1.504c.37-1.975 1.329-3.448 2.873-4.42 1.237-.783 2.705-1.175 4.404-1.175"/></g><g><path fill="#666" d="M108.91 45.669a2.41 2.41 0 0 1 1.733.692 2.26 2.26 0 0 1 .718 1.69c0 .638-.239 1.189-.718 1.652a2.41 2.41 0 0 1-1.734.692c-.701 0-1.285-.224-1.752-.675a2.225 2.225 0 0 1-.701-1.67c0-.663.239-1.226.718-1.689a2.41 2.41 0 0 1 1.735-.692m-3.154 24.024c-.538 2.062-1.321 3.756-2.348 5.083-1.331 1.705-2.897 2.558-4.696 2.558-.958 0-1.787-.188-2.488-.568-.865-.474-1.297-1.161-1.297-2.06 0-.522.134-.967.403-1.333.269-.368.602-.576.999-.623.608 0 1.097.166 1.472.498.373.331.56.746.56 1.244v.354c-.029.19-.122.374-.28.551-.164.179-.245.29-.245.338 0 .167.081.29.245.374.164.083.357.124.567.124.467 0 .882-.284 1.232-.854.193-.308.403-.816.637-1.527.093-.308.315-1.12.671-2.447.21-.83.42-1.647.637-2.45l2.775-11.132.139-1.172c0-.426-.099-.717-.297-.871-.2-.154-.579-.23-1.14-.23h-.7v-.997c1.215 0 2.201-.041 2.961-.123.76-.083 2.214-.362 4.363-.836zm4.905.285l3.435-12.297c.14-.474.21-.842.21-1.102 0-.474-.157-.776-.473-.905-.315-.132-.8-.197-1.454-.197v-.959c1.098-.095 2.266-.208 3.492-.326a21.139 21.139 0 0 0 3.569-.663l-2.12 6.675.14.072c1.285-2.156 2.453-3.756 3.505-4.799 1.307-1.302 2.605-1.954 3.889-1.954.772 0 1.338.219 1.7.657.362.439.543 1.049.543 1.83 0 1.044-.222 2.156-.666 3.342v.071c1.075-1.824 1.986-3.117 2.733-3.886 1.286-1.345 2.652-2.014 4.101-2.014.794 0 1.437.249 1.927.752.49.498.736 1.226.736 2.174 0 1.073-.713 3.347-2.138 6.824-.678 1.646-1.016 3.027-1.016 4.146 0 .166.059.273.175.32.117.048.222.094.316.142.491-.166.97-.534 1.437-1.102.233-.308.595-.841 1.086-1.6l.77.498c-.933 1.707-1.868 2.927-2.802 3.66-.819.664-1.718.997-2.699.997-.747 0-1.355-.203-1.823-.611-.467-.403-.7-1.019-.7-1.853.169-1.547.561-3.288 1.186-5.213.187-.598.822-2.298 1.898-5.112v-.604a.834.834 0 0 0-.264-.593c-.175-.178-.355-.266-.543-.266-.677 0-1.355.403-2.032 1.214-.397.474-.841 1.167-1.331 2.074-.935 1.592-1.671 3.168-2.209 4.714-.022.048-.63 2.014-1.822 5.894h-4.24l3.048-9.803a53.97 53.97 0 0 0 .562-2.009c.139-.549.21-.959.21-1.225 0-.332-.024-.521-.071-.575-.069-.189-.279-.284-.63-.284-.841 0-1.95 1.078-3.33 3.233-.536.789-1.144 2.033-1.822 3.733a55.947 55.947 0 0 0-2.172 6.93zm26.984 0l5.601-20.613.146-1.102c0-.758-.549-1.137-1.647-1.137h-.56v-.96c1.145-.118 2.4-.266 3.767-.444a46.17 46.17 0 0 0 3.557-.586l-4.317 16.17.053.065a56.364 56.364 0 0 0 2.43-1.954c1.104-.924 1.874-1.629 2.318-2.126.193-.19.386-.439.585-.747.198-.308.297-.569.297-.782 0-.568-.595-.853-1.787-.853v-.889h7.254v.889a5.004 5.004 0 0 0-1.979.605c-.597.331-1.257.829-1.98 1.492l-2.945 2.559c.514 2.321 1.04 4.632 1.577 6.93.117.308.28.592.491.852.21.262.432.392.665.392.328 0 .672-.177 1.034-.533.363-.355.754-.936 1.175-1.742l.736.427c-.725 1.493-1.496 2.595-2.313 3.304-.818.712-1.636 1.067-2.454 1.067-.794 0-1.489-.337-2.084-1.013-.597-.675-1.116-1.842-1.56-3.5a22.571 22.571 0 0 1-.666-3.412l-1.402.959-1.664 6.688z"/></g><g><path fill="#666" d="M130.995.043c1.834 0 3.41.668 4.728 2.006 1.319 1.336 1.978 2.934 1.978 4.795 0 1.86-.659 3.459-1.978 4.796-1.318 1.336-2.894 2.005-4.728 2.005-1.834 0-3.411-.669-4.728-2.005-1.32-1.337-1.978-2.936-1.978-4.796 0-1.861.658-3.459 1.978-4.795 1.317-1.338 2.894-2.006 4.728-2.006"/></g></g></g></svg>