<svg xmlns="http://www.w3.org/2000/svg" width="220" height="40" viewBox="0 0 220 40"><g><g><g><path fill="#666" d="M33.354 40.001H6.688a6.675 6.675 0 0 1-6.669-6.667V6.668A6.675 6.675 0 0 1 6.688.001h26.666c3.675 0 6.665 2.991 6.665 6.667v26.666c0 3.676-2.99 6.667-6.665 6.667M6.688 2.501a4.173 4.173 0 0 0-4.169 4.167v26.666a4.173 4.173 0 0 0 4.169 4.167h26.666a4.17 4.17 0 0 0 4.165-4.167V6.668a4.171 4.171 0 0 0-4.165-4.167z"/></g><g><path fill="#666" d="M27.52 13.692h5V7.5h-5c-4.136 0-7.5 3.645-7.5 8.125v3.125h-5v6.21h5v15.04h6.25v-15.04h6.25v-6.21h-6.25v-3.184c0-1.073.66-1.875 1.25-1.875"/></g></g><g><g><path fill="#666" d="M93.18 40.001H66.514a6.675 6.675 0 0 1-6.668-6.667V6.668A6.675 6.675 0 0 1 66.514.001H93.18a6.674 6.674 0 0 1 6.666 6.667v26.666a6.674 6.674 0 0 1-6.666 6.667m-26.666-37.5a4.173 4.173 0 0 0-4.168 4.167v26.666a4.173 4.173 0 0 0 4.168 4.167H93.18a4.172 4.172 0 0 0 4.166-4.167V6.668a4.172 4.172 0 0 0-4.166-4.167z"/></g><g><path fill="#666" d="M76.749 30.756c9.994 0 15.458-8.28 15.458-15.46 0-.234-.003-.47-.016-.701a11.001 11.001 0 0 0 2.71-2.814 10.89 10.89 0 0 1-3.119.856 5.473 5.473 0 0 0 2.39-3.006 10.931 10.931 0 0 1-3.451 1.32 5.432 5.432 0 0 0-9.397 3.714c0 .427.047.84.139 1.241a15.432 15.432 0 0 1-11.199-5.677 5.425 5.425 0 0 0-.736 2.729c0 1.885.958 3.548 2.419 4.523a5.4 5.4 0 0 1-2.462-.68l-.001.07a5.436 5.436 0 0 0 4.357 5.326 5.367 5.367 0 0 1-2.45.091 5.44 5.44 0 0 0 5.073 3.776 10.896 10.896 0 0 1-6.748 2.326c-.437 0-.868-.026-1.295-.076a15.362 15.362 0 0 0 8.328 2.442"/></g></g><g><g><path fill="#666" d="M212.834 40.001h-26.666a6.675 6.675 0 0 1-6.668-6.667V6.668a6.675 6.675 0 0 1 6.668-6.667h26.666a6.674 6.674 0 0 1 6.666 6.667v26.666a6.674 6.674 0 0 1-6.666 6.667m-26.666-37.5A4.173 4.173 0 0 0 182 6.668v26.666a4.173 4.173 0 0 0 4.168 4.167h26.666A4.172 4.172 0 0 0 217 33.334V6.668a4.172 4.172 0 0 0-4.166-4.167z"/></g><g><path fill="#666" d="M209.193 9.57c3.632 0 4.72 2.944 4.72 6.577v6.957c0 3.633-1.243 6.577-4.874 6.577h-18.69c-3.633 0-5.263-2.944-5.263-6.577v-6.957c0-3.633 1.477-6.577 5.108-6.577h18.999m-4.729 10.224l-7.853-4.099v8.196z"/></g></g><g><g><path fill="#666" d="M153.007 40.001h-26.666a6.675 6.675 0 0 1-6.668-6.667V6.668a6.675 6.675 0 0 1 6.668-6.667h26.666a6.674 6.674 0 0 1 6.666 6.667v26.666a6.674 6.674 0 0 1-6.666 6.667m-26.666-37.5a4.173 4.173 0 0 0-4.168 4.167v26.666a4.173 4.173 0 0 0 4.168 4.167h26.666a4.172 4.172 0 0 0 4.166-4.167V6.668a4.172 4.172 0 0 0-4.166-4.167z"/></g><g><path fill="#666" d="M144.952 6.593a8.474 8.474 0 0 1 8.474 8.476v10.556a8.473 8.473 0 0 1-8.474 8.473h-10.557a8.473 8.473 0 0 1-8.475-8.473V15.069a8.475 8.475 0 0 1 8.475-8.476h10.557m5.834 9.488a6.849 6.849 0 0 0-6.847-6.848h-8.531a6.849 6.849 0 0 0-6.848 6.848v8.53a6.847 6.847 0 0 0 6.848 6.848h8.531a6.847 6.847 0 0 0 6.847-6.848z"/></g><g><path fill="#666" d="M140.042 13.15a7.245 7.245 0 1 1 0 14.49 7.246 7.246 0 0 1 0-14.49m0 11.603a4.358 4.358 0 1 0 0-8.717 4.358 4.358 0 0 0 0 8.717"/></g><g><path fill="#666" d="M148.628 13.036a1.843 1.843 0 1 1-3.686-.003 1.843 1.843 0 0 1 3.686.003"/></g></g></g></svg>