<svg xmlns="http://www.w3.org/2000/svg" width="25" height="19" viewBox="0 0 25 19"><g><g><g><path fill="#b2b2b2" d="M24.162 4.614l-.018-.16-.111-.117C21.965 2.169 17.549.767 12.782.767l-.064.001C7.739.659 3.109 2.089.964 4.337l-.111.117-.018.16a8.137 8.137 0 0 0 .637 4.27c.193.44.826.781 1.242.781a.656.656 0 0 0 .285-.06c.996-.468 2.283-1.091 3.425-1.755.249-.146.752-.764.647-1.236L6.756 5.21c-.011-.044.024-.102.039-.125.077-.113.258-.248.539-.292.631-.099 3.457-.212 5.144-.257 1.778.046 4.569.161 5.185.257.282.044.463.18.539.293.016.023.05.08.038.13l-.314 1.4c-.106.475.401 1.091.649 1.234 1.175.684 2.517 1.329 3.423 1.755.086.04.182.06.287.06.415 0 1.048-.341 1.24-.78a8.13 8.13 0 0 0 .698-3.299c0-.293-.02-.601-.061-.972"/></g><g><path fill="#b2b2b2" d="M17.137 6.701c1.081 1.147 4.794 6.43 4.794 7.089v3.609c0 .714-.582 1.295-1.297 1.295H4.363a1.297 1.297 0 0 1-1.296-1.295V13.79c0-.663 3.712-5.942 4.795-7.089v-.613c0-.464.377-.841.841-.841h1.491c.464 0 .841.377.841.841v.279h2.929v-.279c0-.464.377-.841.84-.841h1.492c.464 0 .841.377.841.841v.613m-4.638 7.172c2.712 0 4.836-1.277 4.836-2.908s-2.124-2.908-4.836-2.908c-2.711 0-4.834 1.277-4.834 2.908s2.123 2.908 4.834 2.908"/></g></g></g></svg>