<svg xmlns="http://www.w3.org/2000/svg" width="31" height="32" viewBox="0 0 31 32"><g><g><g><path fill="#1a1a1a" d="M4.575 23.371c-1.128 0-2.087.408-2.876 1.224C.911 25.41.515 26.4.515 27.565c0 1.165.395 2.155 1.184 2.97.789.816 1.748 1.224 2.876 1.224 1.127 0 2.085-.408 2.875-1.224.789-.815 1.183-1.805 1.183-2.97 0-1.165-.394-2.155-1.183-2.97-.79-.816-1.748-1.224-2.875-1.224"/></g><g><path fill="#1a1a1a" d="M28.08 31.863c-1.68 0-3.042-1.407-3.042-3.143 0-12.295-9.682-22.297-21.582-22.297-1.68 0-3.042-1.408-3.042-3.144C.414 1.544 1.776.136 3.456.136c15.255 0 27.666 12.823 27.666 28.584 0 1.736-1.362 3.143-3.042 3.143"/></g><g><path fill="#1a1a1a" d="M16.956 31.863c-1.68 0-3.042-1.407-3.042-3.143 0-5.958-4.692-10.805-10.458-10.805-1.68 0-3.042-1.407-3.042-3.143 0-1.736 1.362-3.143 3.042-3.143 9.121 0 16.542 7.667 16.542 17.091 0 1.736-1.362 3.143-3.042 3.143"/></g></g></g></svg>