<svg xmlns="http://www.w3.org/2000/svg" width="32" height="30" viewBox="0 0 32 30"><g><g><path fill="#b2b2b2" d="M30.375 29.005a3.87 3.87 0 0 1-2.715 1.1 3.87 3.87 0 0 1-2.714-1.1l-6.002-5.863a12.65 12.65 0 0 1-5.677 1.337C6.376 24.479.792 19.022.792 12.292.792 5.562 6.376.105 13.267.105c6.889 0 12.473 5.457 12.473 12.187 0 1.999-.495 3.883-1.367 5.548l6.002 5.863a3.686 3.686 0 0 1 0 5.302M13.267 18.853c3.708 0 6.716-2.937 6.716-6.561S16.975 5.73 13.267 5.73c-3.71 0-6.718 2.938-6.718 6.562s3.008 6.561 6.718 6.561"/></g></g></svg>