<svg xmlns="http://www.w3.org/2000/svg" width="202" height="41" viewBox="0 0 202 41"><g><g><g><path fill="#b2b2b2" d="M33.813 40.183H7.147a6.675 6.675 0 0 1-6.668-6.667V6.85A6.675 6.675 0 0 1 7.147.183h26.666a6.674 6.674 0 0 1 6.666 6.667v26.666a6.674 6.674 0 0 1-6.666 6.667M7.147 2.683A4.173 4.173 0 0 0 2.979 6.85v26.666a4.173 4.173 0 0 0 4.168 4.167h26.666a4.172 4.172 0 0 0 4.166-4.167V6.85a4.172 4.172 0 0 0-4.166-4.167z"/></g><g><path fill="#b2b2b2" d="M27.98 13.874h5V7.683h-5c-4.136 0-7.5 3.645-7.5 8.125v3.125h-5v6.211h5v15.039h6.25V25.144h6.25v-6.211h-6.25v-3.184c0-1.073.66-1.875 1.25-1.875"/></g></g><g><g><path fill="#b2b2b2" d="M87.563 40.183H60.897a6.675 6.675 0 0 1-6.668-6.667V6.85A6.675 6.675 0 0 1 60.897.183h26.666a6.674 6.674 0 0 1 6.666 6.667v26.666a6.674 6.674 0 0 1-6.666 6.667m-26.666-37.5a4.173 4.173 0 0 0-4.168 4.167v26.666a4.173 4.173 0 0 0 4.168 4.167h26.666a4.172 4.172 0 0 0 4.166-4.167V6.85a4.172 4.172 0 0 0-4.166-4.167z"/></g><g><path fill="#b2b2b2" d="M71.133 30.938c9.993 0 15.457-8.28 15.457-15.459 0-.234-.002-.469-.014-.701a11.051 11.051 0 0 0 2.709-2.814c-.973.432-2.021.724-3.119.856a5.48 5.48 0 0 0 2.39-3.007 10.915 10.915 0 0 1-3.452 1.321 5.432 5.432 0 0 0-9.396 3.714c0 .427.047.84.139 1.241a15.44 15.44 0 0 1-11.2-5.677 5.426 5.426 0 0 0-.735 2.729c0 1.885.958 3.547 2.419 4.524a5.396 5.396 0 0 1-2.461-.681c-.002.024-.002.046-.002.069a5.435 5.435 0 0 0 4.356 5.327 5.347 5.347 0 0 1-2.45.091 5.44 5.44 0 0 0 5.075 3.776 10.9 10.9 0 0 1-6.749 2.326c-.438 0-.868-.026-1.295-.076a15.356 15.356 0 0 0 8.328 2.441"/></g></g><g><g><path fill="#b2b2b2" d="M195.063 40.183h-26.666a6.675 6.675 0 0 1-6.668-6.667V6.85a6.675 6.675 0 0 1 6.668-6.667h26.666a6.674 6.674 0 0 1 6.666 6.667v26.666a6.674 6.674 0 0 1-6.666 6.667m-26.666-37.5a4.173 4.173 0 0 0-4.168 4.167v26.666a4.173 4.173 0 0 0 4.168 4.167h26.666a4.172 4.172 0 0 0 4.166-4.167V6.85a4.172 4.172 0 0 0-4.166-4.167z"/></g><g><path fill="#b2b2b2" d="M191.422 9.752c3.633 0 4.72 2.945 4.72 6.578v6.957c0 3.633-1.242 6.577-4.873 6.577h-18.69c-3.633 0-5.263-2.944-5.263-6.577V16.33c0-3.633 1.476-6.578 5.108-6.578zm-4.729 10.225l-7.852-4.1v8.197z"/></g></g><g><g><path fill="#b2b2b2" d="M141.313 40.183h-26.666a6.675 6.675 0 0 1-6.668-6.667V6.85a6.675 6.675 0 0 1 6.668-6.667h26.666a6.674 6.674 0 0 1 6.666 6.667v26.666a6.674 6.674 0 0 1-6.666 6.667m-26.666-37.5a4.173 4.173 0 0 0-4.168 4.167v26.666a4.173 4.173 0 0 0 4.168 4.167h26.666a4.172 4.172 0 0 0 4.166-4.167V6.85a4.172 4.172 0 0 0-4.166-4.167z"/></g><g><path fill="#b2b2b2" d="M133.258 6.775a8.475 8.475 0 0 1 8.474 8.476v10.557a8.473 8.473 0 0 1-8.474 8.474h-10.557a8.474 8.474 0 0 1-8.475-8.474V15.251a8.475 8.475 0 0 1 8.475-8.476h10.557m5.834 9.489a6.848 6.848 0 0 0-6.847-6.848h-8.531a6.848 6.848 0 0 0-6.848 6.848v8.53a6.847 6.847 0 0 0 6.848 6.848h8.531a6.847 6.847 0 0 0 6.847-6.848z"/></g><g><path fill="#b2b2b2" d="M128.349 13.332a7.245 7.245 0 1 1 0 14.49 7.246 7.246 0 0 1 0-14.49m0 11.604a4.36 4.36 0 1 0-.004-8.72 4.36 4.36 0 0 0 .004 8.72"/></g><g><path fill="#b2b2b2" d="M136.935 13.219a1.843 1.843 0 1 1-3.685-.001 1.843 1.843 0 0 1 3.685.001"/></g></g></g></svg>