<svg xmlns="http://www.w3.org/2000/svg" width="41" height="40" viewBox="0 0 41 40"><g><g><g><path fill="#666" d="M34.18 40.001H7.514a6.675 6.675 0 0 1-6.668-6.667V6.668A6.675 6.675 0 0 1 7.514.001H34.18a6.674 6.674 0 0 1 6.666 6.667v26.666a6.674 6.674 0 0 1-6.666 6.667M7.514 2.501a4.173 4.173 0 0 0-4.168 4.167v26.666a4.173 4.173 0 0 0 4.168 4.167H34.18a4.172 4.172 0 0 0 4.166-4.167V6.668a4.172 4.172 0 0 0-4.166-4.167z"/></g><g><path fill="#666" d="M17.749 30.756c9.994 0 15.458-8.28 15.458-15.46 0-.234-.003-.47-.016-.701a11.001 11.001 0 0 0 2.71-2.814 10.89 10.89 0 0 1-3.119.856 5.473 5.473 0 0 0 2.39-3.006 10.931 10.931 0 0 1-3.451 1.32 5.432 5.432 0 0 0-9.397 3.714c0 .427.047.84.139 1.241a15.432 15.432 0 0 1-11.199-5.677 5.425 5.425 0 0 0-.736 2.729c0 1.885.958 3.548 2.419 4.523a5.4 5.4 0 0 1-2.462-.68l-.001.07a5.436 5.436 0 0 0 4.357 5.326 5.367 5.367 0 0 1-2.45.091 5.44 5.44 0 0 0 5.073 3.776 10.896 10.896 0 0 1-6.748 2.326c-.437 0-.868-.026-1.295-.076a15.362 15.362 0 0 0 8.328 2.442"/></g></g></g></svg>