<svg xmlns="http://www.w3.org/2000/svg" width="41" height="41" viewBox="0 0 41 41"><g><g><g><path fill="#b2b2b2" d="M33.563 40.183H6.897a6.675 6.675 0 0 1-6.668-6.667V6.85A6.675 6.675 0 0 1 6.897.183h26.666a6.674 6.674 0 0 1 6.666 6.667v26.666a6.674 6.674 0 0 1-6.666 6.667M6.897 2.683A4.173 4.173 0 0 0 2.729 6.85v26.666a4.173 4.173 0 0 0 4.168 4.167h26.666a4.172 4.172 0 0 0 4.166-4.167V6.85a4.172 4.172 0 0 0-4.166-4.167z"/></g><g><path fill="#b2b2b2" d="M17.133 30.938c9.993 0 15.457-8.28 15.457-15.459 0-.234-.002-.469-.014-.701a11.051 11.051 0 0 0 2.709-2.814c-.973.432-2.021.724-3.119.856a5.48 5.48 0 0 0 2.39-3.007 10.915 10.915 0 0 1-3.452 1.321 5.432 5.432 0 0 0-9.396 3.714c0 .427.047.84.139 1.241a15.44 15.44 0 0 1-11.2-5.677 5.426 5.426 0 0 0-.735 2.729c0 1.885.958 3.547 2.419 4.524a5.396 5.396 0 0 1-2.461-.681c-.002.024-.002.046-.002.069a5.435 5.435 0 0 0 4.356 5.327 5.347 5.347 0 0 1-2.45.091 5.44 5.44 0 0 0 5.075 3.776 10.9 10.9 0 0 1-6.749 2.326c-.438 0-.868-.026-1.295-.076a15.356 15.356 0 0 0 8.328 2.441"/></g></g></g></svg>