<svg xmlns="http://www.w3.org/2000/svg" width="41" height="40" viewBox="0 0 41 40"><g><g><g><path fill="#666" d="M33.834 40.001H7.168A6.675 6.675 0 0 1 .5 33.334V6.668A6.675 6.675 0 0 1 7.168.001h26.666A6.674 6.674 0 0 1 40.5 6.668v26.666a6.674 6.674 0 0 1-6.666 6.667M7.168 2.501A4.173 4.173 0 0 0 3 6.668v26.666a4.173 4.173 0 0 0 4.168 4.167h26.666A4.172 4.172 0 0 0 38 33.334V6.668a4.172 4.172 0 0 0-4.166-4.167z"/></g><g><path fill="#666" d="M30.193 9.57c3.632 0 4.72 2.944 4.72 6.577v6.957c0 3.633-1.243 6.577-4.874 6.577h-18.69c-3.633 0-5.263-2.944-5.263-6.577v-6.957c0-3.633 1.477-6.577 5.108-6.577h18.999m-4.729 10.224l-7.853-4.099v8.196z"/></g></g></g></svg>